<?xml version="1.0" encoding="UTF-8" standalone="no"?>
<!-- Created with Inkscape (http://www.inkscape.org/) -->
<svg xmlns:rdf="http://www.w3.org/1999/02/22-rdf-syntax-ns#" xmlns="http://www.w3.org/2000/svg" xmlns:cc="http://web.resource.org/cc/" xmlns:dc="http://purl.org/dc/elements/1.1/" xmlns:svg="http://www.w3.org/2000/svg" xmlns:inkscape="http://www.inkscape.org/namespaces/inkscape" xmlns:sodipodi="http://sodipodi.sourceforge.net/DTD/sodipodi-0.dtd" xmlns:ns1="http://sozi.baierouge.fr" xmlns:xlink="http://www.w3.org/1999/xlink" id="svg2" viewBox="0 0 157 180" version="1.1" inkscape:version="0.91 r13725">
  <path id="path3450" style="fill:#000000" d="m85.3 155.78c-1.7701-2.2713-4.1183-7.6718-4.793-11.023-1.1508-5.7163-1.5823-6.6684-2.8091-6.1977-1.2172 0.46708-4.35-5.2437-3.3985-6.1952 0.28486-0.28486 0.81434 0.41598 1.1766 1.5574 0.741 2.34 2.524 2.82 2.524 0.69 0-0.76-0.9-5.76-2-11.11s-2.007-12.93-2.015-16.86c-0.021-9.438-0.449-9.996-7.109-9.241-2.957 0.335-6.838 0.72-8.626 0.855s-3.25 0.603-3.25 1.04c0 0.43661-0.5625 0.67428-1.25 0.52815-1.4772-0.31397-10.898 2.1643-12.042 3.1678-1.0072 0.88335 0.83801 2.298 5.2924 4.0575 4.6844 1.8504 11.843 6.7291 13.302 9.0653 0.64829 1.0381 1.8355 1.8874 2.6382 1.8874 1.1188 0 1.1849 0.27454 0.28308 1.1764-0.90183 0.90183-1.6431 0.75395-3.1764-0.63365-1.1-0.99551-1.7161-2.2694-1.3691-2.8309 0.36966-0.59811 0.1347-0.71417-0.56739-0.28026-0.65907 0.40733-1.7411 0.29892-2.4045-0.24091-4.045-3.2915-11.665-6.3455-20.167-8.0822-10.383-2.121-11.474-2.5745-9.9235-4.1246 1.4629-1.4629 25.533-8.589 32.313-9.5664 5.9696-0.86061 14.384-2.3942 14.613-2.6636 0.119-0.139 0.52-3.628 0.891-7.753 1.118-12.437 3.686-28.91 5.377-34.5 1.817-6.003 6.655-13.885 11.615-18.924 8.283-8.412 20.175-10.842 27.515-5.619 4.72 3.363 10.18 14.043 7.17 14.043-0.61 0-1.11-0.581-1.11-1.292 0-1.532-7.54-8.98-10.75-10.626-1.64-0.84-2.25-0.849-2.25-0.034 0 0.61518-0.5625 0.91227-1.25 0.66018-0.6875-0.25208-1.1597-0.89793-1.0494-1.4352 0.38625-1.8807-4.9647 0.02067-5.4673 1.9427-0.37942 1.4509-1.0838 1.7876-2.8254 1.3504-5.238-1.314-14.387 11.583-17.751 25.021-1.73 6.908-3.529 19.976-4.119 29.913l-0.41576 7 7.6881-0.71907c4.2284-0.39549 13.402-1.0169 20.386-1.3809l12.698-0.66179 0.67868 2.7041c0.39698 1.5817 0.21098 3.1718-0.44811 3.8309-0.84 0.836-1.13 0.669-1.13-0.644 0-0.97428-0.675-2.4464-1.5-3.2714-0.98325-0.98325-1.5-1.0907-1.5-0.31194 0 0.69573-0.8288 0.97132-2 0.66505-1.1-0.28766-2-0.08858-2 0.44239s-0.38577 0.72698-0.85727 0.43558-3.509-0.06916-6.75 0.49386c-3.241 0.56303-9.8676 1.5962-14.726 2.296-4.8581 0.69977-9.1671 1.8129-9.5754 2.4737-0.84483 1.367-0.64981 5.9403 0.77514 18.177 1.1958 10.269 2.3504 15.431 6.2987 28.158 1.6529 5.3281 2.8543 10.466 2.6699 11.417-0.43055 2.2206-2.2505 2.8274-3.5353 1.1787zm-14.688-26.25c-1.267-1.9337-1.3134-2.3529-0.21355-1.9308 0.77263 0.29649 1.632 1.4079 1.9097 2.4699 0.6714 2.5674 0.25196 2.4341-1.6962-0.53906zm-2.612-4.53c0-0.55 0.19844-1 0.44098-1s0.7191 0.45 1.059 1c0.33992 0.55 0.14148 1-0.44098 1-0.582 0-1.059-0.45-1.059-1zm-1.9211-1.4167c-0.04342-1.0542 0.19293-1.6448 0.52522-1.3125s0.36782 1.1948 0.07895 1.9167c-0.31923 0.79773-0.55618 0.56078-0.60417-0.60417zm-2.079-2.52c0-0.58 0.45-1.06 1-1.06s1 0.19844 1 0.44098-0.45 0.7191-1 1.059c-0.55 0.33992-1 0.14148-1-0.44098z"/>
  <metadata>
    <rdf:RDF>
      <cc:Work>
        <dc:format>image/svg+xml</dc:format>
        <dc:type rdf:resource="http://purl.org/dc/dcmitype/StillImage"/>
        <cc:license rdf:resource="http://creativecommons.org/licenses/publicdomain/"/>
        <dc:publisher>
          <cc:Agent rdf:about="http://openclipart.org/">
            <dc:title>Openclipart</dc:title>
          </cc:Agent>
        </dc:publisher>
        <dc:title>Letter F</dc:title>
        <dc:date>2010-04-22T06:54:34</dc:date>
        <dc:description>These are some quick sketches and doodles I made in my notebook on a flight. These are mostly shit, but hey, lets see if useful!</dc:description>
        <dc:source>https://openclipart.org/detail/49999/letter-f-by-rejon</dc:source>
        <dc:creator>
          <cc:Agent>
            <dc:title>rejon</dc:title>
          </cc:Agent>
        </dc:creator>
        <dc:subject>
          <rdf:Bag>
            <rdf:li>black</rdf:li>
            <rdf:li>bw</rdf:li>
            <rdf:li>drawings</rdf:li>
            <rdf:li>fast</rdf:li>
            <rdf:li>rapid</rdf:li>
            <rdf:li>rejon</rdf:li>
            <rdf:li>sketch</rdf:li>
            <rdf:li>sketchbook</rdf:li>
            <rdf:li>unchecked</rdf:li>
            <rdf:li>white</rdf:li>
          </rdf:Bag>
        </dc:subject>
      </cc:Work>
      <cc:License rdf:about="http://creativecommons.org/licenses/publicdomain/">
        <cc:permits rdf:resource="http://creativecommons.org/ns#Reproduction"/>
        <cc:permits rdf:resource="http://creativecommons.org/ns#Distribution"/>
        <cc:permits rdf:resource="http://creativecommons.org/ns#DerivativeWorks"/>
      </cc:License>
    </rdf:RDF>
  </metadata>
</svg>
